<?xml version="1.0" standalone="no"?>
<!DOCTYPE svg PUBLIC "-//W3C//DTD SVG 20010904//EN"
 "http://www.w3.org/TR/2001/REC-SVG-20010904/DTD/svg10.dtd">
<svg version="1.0" xmlns="http://www.w3.org/2000/svg"
 width="500.000000pt" height="500.000000pt" viewBox="0 0 500.000000 500.000000"
 preserveAspectRatio="xMidYMid meet">

<g transform="translate(0.000000,500.000000) scale(0.100000,-0.100000)"
fill="#000000" stroke="none">
<path style="fill:#ffffff;" d="M1369 4370 c-634 -362 -1116 -643 -1131 -660 l-28 -30 0 -1180 0
-1180 28 -30 c38 -42 2227 -1290 2262 -1290 35 0 2224 1248 2263 1290 l27 30
0 1180 0 1180 -27 30 c-39 42 -2228 1290 -2263 1290 -18 0 -414 -221 -1131
-630z m2176 -191 l1035 -592 0 -1087 0 -1087 -1035 -592 c-569 -325 -1039
-591 -1045 -591 -6 0 -476 266 -1045 591 l-1035 592 0 1087 0 1087 1033 591
c567 325 1038 591 1045 591 6 1 478 -265 1047 -590z"/>
<path style="fill:#ffffff;" d="M1491 3158 c-13 -7 -33 -25 -44 -40 -27 -37 -13 -68 45 -100 68 -37
70 -51 66 -413 -5 -354 -8 -369 -77 -404 -67 -35 -79 -81 -33 -131 34 -38 97
-50 271 -50 156 0 290 17 330 41 65 39 49 115 -29 134 -67 16 -80 49 -80 196
0 76 4 119 12 127 7 7 29 12 49 12 53 0 95 -38 104 -93 14 -89 61 -113 115
-59 40 41 54 100 55 232 0 138 -8 180 -41 220 -48 56 -114 28 -130 -56 -8 -43
-37 -64 -89 -64 -66 0 -80 17 -77 92 3 100 20 166 45 179 23 13 188 6 247 -11
22 -6 61 -35 101 -75 51 -50 73 -65 96 -65 94 0 117 131 46 262 -43 79 -49 81
-204 67 -126 -11 -457 -8 -674 7 -56 3 -87 1 -104 -8z"/>
<path style="fill:#ffffff;" d="M2645 2843 c-101 -15 -155 -47 -155 -91 0 -38 8 -47 70 -79 l54 -28
142 -265 c157 -295 204 -360 260 -360 58 0 96 51 228 305 194 373 183 356 248
387 42 20 59 34 64 53 14 56 -49 85 -181 85 -129 -1 -205 -26 -205 -70 0 -9
11 -31 25 -50 33 -45 32 -72 -7 -148 -52 -101 -84 -103 -138 -9 -35 60 -38 97
-11 121 11 10 25 31 31 47 16 39 -6 74 -57 90 -39 11 -314 21 -368 12z"/>
</g>
</svg>
